<svg width="42" height="43" viewBox="0 0 42 43" fill="none" xmlns="http://www.w3.org/2000/svg">
<g clip-path="url(#clip0_80_45428)">
<path d="M36.7505 10.5607H28.8753V5.52096C28.8753 4.13378 27.6934 3 26.2505 3H15.7505C14.3066 3 13.1247 4.13487 13.1247 5.52096V10.5607H5.24945C2.36149 10.5607 0 12.8283 0 15.6015V35.7627C0 38.5359 2.36149 40.8024 5.24945 40.8024H36.7505C39.6374 40.8024 42 38.5359 42 35.7627V15.6015C42 12.8283 39.6374 10.5607 36.7505 10.5607ZM15.7495 5.52096H26.2505V10.5607H15.7495V5.52096ZM31.5 28.202H23.6247V35.7627H18.3753V28.202H10.5V23.1622H18.3753V15.6015H23.6247V23.1622H31.5V28.202Z" fill="#808EB1"/>
</g>
<defs>
<clipPath id="clip0_80_45428">
<rect width="42" height="42" fill="white" transform="translate(0 0.5)"/>
</clipPath>
</defs>
</svg>
