<svg width="42" height="43" viewBox="0 0 42 43" fill="none" xmlns="http://www.w3.org/2000/svg">
<path d="M35.875 25.875H27.5625C26.1625 27.975 23.7125 29.375 21 29.375C18.2875 29.375 15.8375 27.975 14.4375 25.875H6.125C5.1625 25.875 4.375 26.6625 4.375 27.625V36.375C4.375 37.3375 5.1625 38.125 6.125 38.125H35.875C36.8375 38.125 37.625 37.3375 37.625 36.375V27.625C37.625 26.6625 36.8375 25.875 35.875 25.875ZM13.125 8.375H8.75C7.7875 8.375 7 9.1625 7 10.125V23.25H13.125V8.375Z" fill="#808EB1"/>
<path d="M16.625 24.3875C17.5875 25.875 19.25 26.75 21 26.75C22.75 26.75 24.4125 25.875 25.375 24.3875L26.1625 23.25H35V6.625C35 5.6625 34.2125 4.875 33.25 4.875H17.5C16.5375 4.875 15.75 5.6625 15.75 6.625V23.25H15.8375L16.625 24.3875ZM20.5625 8.375H30.1875C30.8875 8.375 31.5 8.9875 31.5 9.6875C31.5 10.3875 30.8875 11 30.1875 11H20.5625C19.8625 11 19.25 10.3875 19.25 9.6875C19.25 8.9875 19.8625 8.375 20.5625 8.375ZM20.5625 13.625H30.1875C30.8875 13.625 31.5 14.2375 31.5 14.9375C31.5 15.6375 30.8875 16.25 30.1875 16.25H20.5625C19.8625 16.25 19.25 15.6375 19.25 14.9375C19.25 14.2375 19.8625 13.625 20.5625 13.625ZM20.5625 18.875H30.1875C30.8875 18.875 31.5 19.4875 31.5 20.1875C31.5 20.8875 30.8875 21.5 30.1875 21.5H20.5625C19.8625 21.5 19.25 20.8875 19.25 20.1875C19.25 19.4875 19.8625 18.875 20.5625 18.875Z" fill="#808EB1"/>
</svg>
